# AST/ASF file generated using VICON BodyLanguage
# -----------------------------------------------
:version 1.10
:name VICON
:units
  mass 1.0
  length 0.45
  angle deg
:documentation
   .ast/.asf automatically generated from VICON data using
   VICON BodyBuilder and BodyLanguage model FoxedUp or BRILLIANT.MOD
:root
   order TX TY TZ RX RY RZ
   axis XYZ
   position 0 0 0  
   orientation 0 0 0 
:bonedata
  begin
     id 1 
     name lhipjoint
     direction 0.645893 -0.654526 0.392961 
     length 2.38111 
     axis 0 0 0  XYZ
  end
  begin
     id 2 
     name lfemur
     direction 0.34202 -0.939693 0  
     length 6.6822  
     axis 0 0 20  XYZ
    dof rx ry rz
    limits (-160.0 20.0)
           (-70.0 70.0)
           (-60.0 70.0)
  end
  begin
     id 3 
     name ltibia
     direction 0.34202 -0.939693 0   
     length 6.93904   
     axis 0 0 20   XYZ
    dof rx
    limits (-10.0 170.0)
  end
  begin
     id 4 
     name lfoot
     direction 0.0694967 -0.190941 0.979138   
     length 2.13616   
     axis -90 7.62852e-016 20   XYZ
    dof rx rz
    limits (-45.0 90.0)
           (-70.0 20.0)
  end
  begin
     id 5 
     name ltoes
     direction 1.535e-011 -4.2202e-011 1   
     length 1.07536   
     axis -90 7.62852e-016 20   XYZ
    dof rx
    limits (-90.0 20.0)
  end
  begin
     id 6 
     name rhipjoint
     direction -0.700219 -0.612087 0.367481   
     length 2.54621  
     axis 0 0 0  XYZ 
  end
  begin
     id 7 
     name rfemur
     direction -0.34202 -0.939693 0   
     length 6.55353   
     axis 0 0 -20   XYZ
    dof rx ry rz
    limits (-160.0 20.0)
           (-70.0 70.0)
           (-70.0 60.0)
  end
  begin
     id 8 
     name rtibia
     direction -0.34202 -0.939693 0   
     length 6.8736   
     axis 0 0 -20   XYZ
    dof rx
    limits (-10.0 170.0)
 end
 begin
     id 9 
     name rfoot
     direction -0.0679995 -0.186827 0.980037   
     length 2.1218  
     axis -90 -7.62852e-016 -20   XYZ
    dof rx rz
    limits (-45.0 90.0)
           (-20.0 70.0)
  end
  begin
     id 10 
     name rtoes
     direction -1.53589e-011 -4.21772e-011 1   
     length 1.06864   
     axis -90 -7.62852e-016 -20   XYZ
    dof rx
    limits (-90.0 20.0)
  end
  begin
     id 11 
     name lowerback
     direction -0.0416607 0.996347 -0.0745409   
     length 2.12205   
     axis 0 0 0   XYZ
    dof rx ry rz
    limits (-20.0 45.0)
           (-30.0 30.0)
           (-30.0 30.0)
  end
  begin
     id 12 
     name upperback
     direction -0.000153993 0.999276 -0.0380568   
     length 2.12759   
     axis 0 0 0   XYZ
    dof rx ry rz
    limits (-20.0 45.0)
           (-30.0 30.0)
           (-30.0 30.0)
  end
  begin
     id 13 
     name thorax
     direction 0.0187671 0.999821 -0.00241421   
     length 2.13704   
     axis 0 0 0   XYZ
    dof rx ry rz
    limits (-20.0 45.0)
           (-30.0 30.0)
           (-30.0 30.0)
  end
  begin
     id 14 
     name lowerneck
     direction 0.0268157 0.964865 0.261374   
     length 1.65253   
     axis 0 0 0   XYZ
    dof rx ry rz
    limits (-20.0 45.0)
           (-30.0 30.0)
           (-30.0 30.0)
  end
  begin
     id 15 
     name upperneck
     direction 0.00263774 0.939908 -0.341418   
     length 1.72375   
     axis 0 0 0   XYZ
    dof rx ry rz
    limits (-20.0 45.0)
           (-30.0 30.0)
           (-30.0 30.0)
  end
  begin
     id 16
     name head
     direction -0.00526001 0.989001 -0.147818  
     length 1.74878  
     axis 0 0 0   XYZ
    dof rx ry rz
    limits (-20.0 45.0)
           (-30.0 30.0)
           (-30.0 30.0)
  end
  begin
     id 17 
     name lclavicle
     direction 0.881214 0.461162 -0.103884  
     length 3.25108  
     axis 0 0 0   XYZ
    dof ry rz
    limits (-20.0 10.0)
           (0.0 20.0)
  end
  begin
     id 18 
     name lhumerus
     direction 1 -4.4899e-011 3.38092e-027   
     length 4.87408   
     axis 180 -30 -90   XYZ
    dof rx ry rz
    limits (-60.0 90.0)
           (-90.0 90.0)
           (-90.0 90.0)
  end
  begin
     id 19
     name lradius
     direction 1 -4.48931e-011 9.96288e-027   
     length 2.76729   
     axis 180 -30 -90   XYZ
    dof rx
    limits (-10.0 170.0)
  end
  begin
     id 20
     name lwrist
     direction 1 -4.4896e-011 1.50617e-026   
     length 1.38364   
     axis -9.31234e-015 90 90   XYZ
    dof ry
    limits (-180.0 0.0)
 end
  begin
     id 21 
     name lhand
     direction 1 -4.49038e-011 3.01286e-026   
     length 0.98922   
     axis -1.92217e-014 90 90   XYZ
    dof rx rz
    limits (-90.0 90.0)
           (-45.0 45.0)
  end
  begin
     id 22 
     name lfingers
     direction 1 -4.49051e-011 6.02588e-026   
     length 0.797535   
     axis -3.84436e-014 90 90   XYZ
    dof rx
    limits (0.0 90.0)
  end
  begin
     id 23
     name lthumb
     direction 0.707107 -6.34901e-011 0.707107   
     length 1.14511   
     axis -90 45 2.19363e-014   XYZ
    dof rx rz
    limits (-45.0 45.0)
           (-45.0 45.0)
  end
  begin
     id 24 
     name rclavicle
     direction -0.893894 0.441652 -0.0767889   
     length 3.29361  
     axis 0 0 0   XYZ 
    dof ry rz
    limits (-10.0 20.0)
           (-20.0 0.0)
  end
  begin
     id 25 
     name rhumerus
     direction -1 -4.48945e-011 8.0491e-028  
     length 4.71404   
     axis 180 30 90   XYZ
    dof rx ry rz
    limits (-90.0 60.0)
           (-90.0 90.0)
           (-90.0 90.0)
  end
  begin
     id 26 
     name rradius
     direction -1 -4.48986e-011 9.27795e-027   
     length 2.83468   
     axis 180 30 90   XYZ
    dof rx
    limits (-10.0 170.0)
  end
  begin
     id 27 
     name rwrist
     direction -1 -4.49029e-011 1.5064e-026   
     length 1.41734   
     axis -9.31234e-015 -90 -90   XYZ
    dof ry
    limits (-180.0 0.0)
  end
  begin
     id 28
     name rhand
     direction -1 -4.48857e-011 3.01165e-026   
     length 0.868195   
     axis -1.92217e-014 -90 -90   XYZ
    dof rx rz
    limits (-90.0 90.0)
           (-45.0 45.0)
  end
  begin
     id 29
     name rfingers
     direction -1 -4.49048e-011 6.02585e-026   
     length 0.699961   
     axis -3.84436e-014 -90 -90   XYZ
    dof rx
    limits (0.0 90.0)
  end
  begin
     id 30
     name rthumb
     direction -0.707107 -6.34854e-011 0.707107   
     length 1.00501   
     axis -90 -45 -2.19363e-014   XYZ
    dof rx rz
    limits (-45.0 45.0)
           (-45.0 45.0)
  end
:hierarchy
  begin
    root lhipjoint rhipjoint lowerback
    lhipjoint lfemur
    lfemur ltibia
    ltibia lfoot
    lfoot ltoes
    rhipjoint rfemur
    rfemur rtibia
    rtibia rfoot
    rfoot rtoes
    lowerback upperback
    upperback thorax
    thorax lowerneck lclavicle rclavicle
    lowerneck upperneck
    upperneck head
    lclavicle lhumerus
    lhumerus lradius
    lradius lwrist
    lwrist lhand lthumb
    lhand lfingers
    rclavicle rhumerus
    rhumerus rradius
    rradius rwrist
    rwrist rhand rthumb
    rhand rfingers
  end

#!OML:ASF H:\ManfredObstacles\Project 1\Capture day 2\Session 1\male.ASF
:FULLY-SPECIFIED
:DEGREES
115
root 2.19192 16.2249 -1.54701 -169.25 -26.0162 170.599
lowerback -1.77026 -8.48645 -10.4415
upperback 1.72127 -11.0755 0.205837
thorax 4.80261 -5.82934 5.08636
lowerneck -28.1371 3.51109 -0.967207
upperneck 48.0502 -1.47179 0.18139
head 29.7937 -2.59978 -1.28477
rclavicle -7.5563e-014 2.22639e-014
rhumerus -87.3715 9.65645 -61.7646
rradius 82.5025
rwrist -0.217614
rhand -7.63 -2.49697
rfingers 7.12502
rthumb 18.2648 -31.6595
lclavicle -7.5563e-014 2.22639e-014
lhumerus -83.5757 -50.8634 82.7918
lradius 103.189
lwrist -19.6702
lhand -18.111 1.84205
lfingers 7.12502
lthumb 8.1632 31.6644
rfemur -42.5055 6.48219 -6.70782
rtibia 32.1052
rfoot 37.0749 -2.75074
rtoes -30.7887
lfemur 6.85252 -3.80946 -11.4074
ltibia 62.7313
lfoot 17.8523 3.25086
ltoes 4.13514
116
root 2.23676 16.0402 -1.87458 -169.461 -25.944 170.682
lowerback -1.59643 -8.28476 -10.675
upperback 1.76134 -10.8201 0.162823
thorax 4.7389 -5.70999 5.2204
lowerneck -28.2188 3.35875 -1.13151
upperneck 47.978 -1.65097 0.369441
head 29.7324 -2.65193 -1.16767
rclavicle 6.10517e-014 3.06128e-014
rhumerus -86.2074 8.46079 -62.4676
rradius 82.003
rwrist 0.046951
rhand -7.949 -2.66883
rfingers 7.12502
rthumb 17.9579 -31.8598
lclavicle 6.10517e-014 3.06128e-014
lhumerus -84.1225 -49.4823 83.6056
lradius 102.568
lwrist -19.9395
lhand -18.1491 1.92641
lfingers 7.12502
lthumb 8.12643 31.7502
rfemur -42.9047 5.78038 -5.35181
rtibia 35.6828
rfoot 33.7239 3.80476
rtoes -37.0526
lfemur 5.61303 -3.67021 -11.0457
ltibia 65.9432
lfoot 16.594 3.65858
ltoes 3.46045
117
root 2.28123 15.8558 -2.19139 -169.681 -25.8731 170.777
lowerback -1.31002 -8.06649 -10.8484
upperback 1.81377 -10.559 0.0967567
thorax 4.60626 -5.58421 5.31593
lowerneck -28.3263 3.19159 -1.30338
upperneck 47.8778 -1.84931 0.596543
head 29.6465 -2.70171 -1.02504
rclavicle 5.46906e-014 8.94531e-015
rhumerus -84.8338 7.17281 -63.2992
rradius 81.371
rwrist 0.347478
rhand -8.33114 -2.91993
rfingers 7.12502
rthumb 17.5902 -32.1442
lclavicle 5.46906e-014 8.94531e-015
lhumerus -84.2119 -48.0589 84.2728
lradius 101.737
lwrist -20.1978
lhand -18.1929 1.91366
lfingers 7.12502
lthumb 8.08416 31.739
rfemur -43.5903 4.95355 -3.99069
rtibia 39.6824
rfoot 28.7579 7.14148
rtoes -39.5962
lfemur 4.23708 -3.60296 -10.7763
ltibia 69.2176
lfoot 15.4792 4.231
ltoes 2.98322
118
root 2.32564 15.6758 -2.4939 -169.935 -25.7858 170.92
lowerback -0.864712 -7.82265 -10.9333
upperback 1.88454 -10.2872 0.0203969
thorax 4.38226 -5.44816 5.37664
lowerneck -28.4646 3.01997 -1.45792
upperneck 47.7493 -2.04754 0.834703
head 29.5388 -2.73997 -0.875173
rclavicle 1.05033e-013 1.98785e-015
rhumerus -83.2326 5.79665 -64.2771
rradius 80.6311
rwrist 0.656392
rhand -8.81519 -3.25162
rfingers 7.12502
rthumb 17.1243 -32.517
lclavicle 1.05033e-013 1.98785e-015
lhumerus -83.7929 -46.5751 84.7598
lradius 100.684
lwrist -20.4859
lhand -18.197 1.80393
lfingers 7.12502
lthumb 8.08022 31.6295
rfemur -44.5914 4.08941 -2.63298
rtibia 43.9579
rfoot 24.0622 5.64296
rtoes -38.9532
lfemur 2.7039 -3.58553 -10.5833
ltibia 72.5546
lfoot 14.5284 4.96551
ltoes 2.67546
119
root 2.36968 15.5027 -2.77806 -170.292 -25.6384 171.171
lowerback -0.181765 -7.53144 -10.8653
upperback 1.98016 -9.98547 -0.0588609
thorax 4.01733 -5.28916 5.38733
lowerneck -28.6277 2.83889 -1.58749
upperneck 47.5754 -2.24027 1.0742
head 29.3758 -2.76181 -0.722296
rclavicle 8.21353e-014 5.11871e-015
rhumerus -81.3948 4.35943 -65.4224
rradius 79.8104
rwrist 0.967807
rhand -9.37611 -3.67216
rfingers 7.12502
rthumb 16.5844 -32.9835
lclavicle 8.21353e-014 5.11871e-015
lhumerus -82.8873 -45.0086 85.0715
lradius 99.4047
lwrist -20.8084
lhand -18.1668 1.62413
lfingers 7.12502
lthumb 8.10932 31.4485
rfemur -45.857 3.32954 -1.25522
rtibia 48.3182
rfoot 19.8459 1.95302
rtoes -35.5783
lfemur 1.05464 -3.56309 -10.4219
ltibia 75.9472
lfoot 13.7228 5.85719
ltoes 2.58539
120
root 2.41337 15.3374 -3.04038 -170.857 -25.3693 171.584
lowerback 0.810425 -7.17383 -10.6326
upperback 2.14729 -9.63372 -0.124615
thorax 3.52081 -5.10043 5.36166
lowerneck -28.8566 2.63923 -1.71524
upperneck 47.343 -2.41468 1.31103
head 29.1649 -2.76532 -0.560276
rclavicle 7.08372e-014 1.75614e-014
rhumerus -79.2161 2.91412 -66.7538
rradius 78.8958
rwrist 1.22395
rhand -9.99884 -4.20285
rfingers 7.12502
rthumb 15.9848 -33.5633
lclavicle 7.08372e-014 1.75614e-014
lhumerus -81.5039 -43.3224 85.2085
lradius 97.9318
lwrist -21.1181
lhand -18.1194 1.49392
lfingers 7.12502
lthumb 8.15506 31.3166
rfemur -47.2358 2.84381 0.158655
rtibia 52.5657
rfoot 15.8711 -0.711514
rtoes -31.1752
lfemur -0.607996 -3.47819 -10.2508
ltibia 79.3696
lfoot 12.9845 6.91432
ltoes 2.63261
121
root 2.45572 15.1799 -3.28005 -171.716 -24.9555 172.229
lowerback 2.12792 -6.75327 -10.2028
upperback 2.42528 -9.23153 -0.140446
thorax 2.92963 -4.886 5.31102
lowerneck -29.1801 2.42619 -1.80796
upperneck 47.0188 -2.5129 1.48043
head 28.8648 -2.72525 -0.416843
rclavicle 6.52511e-014 4.57205e-014
rhumerus -76.5955 1.55685 -68.2657
rradius 77.8489
rwrist 1.44008
rhand -10.6733 -4.81631
rfingers 7.12502
rthumb 15.3352 -34.2277
lclavicle 6.52511e-014 4.57205e-014
lhumerus -79.6684 -41.4942 85.2279
lradius 96.2705
lwrist -21.3392
lhand -18.0948 1.56526
lfingers 7.12502
lthumb 8.17883 31.387
rfemur -48.5122 2.71719 1.66374
rtibia 56.5185
rfoot 12.8045 -1.85506
rtoes -28.1625
lfemur -2.19448 -3.29412 -9.98782
ltibia 82.7866
lfoot 12.2298 8.11471
ltoes 2.73342
122
root 2.49465 15.03 -3.49881 -172.867 -24.4008 173.147
lowerback 3.67341 -6.2875 -9.53683
upperback 2.84314 -8.78116 -0.0804613
thorax 2.33137 -4.65323 5.2165
lowerneck -29.6223 2.18351 -1.91002
upperneck 46.5873 -2.53473 1.59483
head 28.476 -2.64753 -0.274804
rclavicle 5.90142e-014 5.36719e-015
rhumerus -73.4473 0.370706 -69.9558
rradius 76.6336
rwrist 1.603
rhand -11.3896 -5.5132
rfingers 7.12502
rthumb 14.6452 -34.976
lclavicle 5.90142e-014 5.36719e-015
lhumerus -77.414 -39.5754 85.1925
lradius 94.4445
lwrist -21.3951
lhand -18.0985 1.9825
lfingers 7.12502
lthumb 8.1753 31.8043
rfemur -49.5033 2.95183 3.30249
rtibia 60.0498
rfoot 10.741 -1.97896
rtoes -27.0715
lfemur -3.70159 -2.99776 -9.5573
ltibia 86.1615
lfoot 11.3774 9.46255
ltoes 2.96517
123
root 2.52801 14.8889 -3.70133 -174.19 -23.7566 174.259
lowerback 5.31283 -5.80804 -8.66721
upperback 3.3683 -8.30273 0.0306072
thorax 1.7761 -4.4149 5.04691
lowerneck -30.1374 1.93577 -1.94421
upperneck 46.0682 -2.49194 1.61085
head 28.0094 -2.53084 -0.184794
rclavicle 1.73688e-014 -4.47266e-014
rhumerus -69.822 -0.594371 -71.8146
rradius 75.2252
rwrist 1.79567
rhand -12.1208 -6.25185
rfingers 7.12502
rthumb 13.9405 -35.7645
lclavicle 1.73688e-014 -4.47266e-014
lhumerus -74.8608 -37.7095 85.1982
lradius 92.4784
lwrist -21.1657
lhand -18.1836 2.82328
lfingers 7.12502
lthumb 8.0931 32.6483
rfemur -50.1265 3.43649 5.00593
rtibia 63.1118
rfoot 9.38741 -1.57306
rtoes -27.1228
lfemur -5.20619 -2.63452 -9.02144
ltibia 89.4519
lfoot 10.3852 10.9173
ltoes 3.19007
124
root 2.55549 14.7583 -3.89355 -175.477 -23.1079 175.403
lowerback 6.83625 -5.3645 -7.7318
upperback 3.962 -7.84364 0.170276
thorax 1.36859 -4.19965 4.82745
lowerneck -30.6918 1.69961 -1.91494
upperneck 45.4835 -2.38489 1.53091
head 27.49 -2.38387 -0.146286
rclavicle 1.02175e-013 -1.41137e-014
rhumerus -65.7476 -1.24587 -73.8119
rradius 73.6152
rwrist 2.06297
rhand -12.8617 -7.04685
rfingers 7.12502
rthumb 13.2266 -36.6072
lclavicle 1.02175e-013 -1.41137e-014
lhumerus -72.0697 -35.9896 85.2777
lradius 90.4139
lwrist -20.6646
lhand -18.3272 4.0546
lfingers 7.12502
lthumb 7.95456 33.8849
rfemur -50.4521 4.00051 6.64281
rtibia 65.7395
rfoot 8.34236 -0.950511
rtoes -27.7669
lfemur -6.8785 -2.28341 -8.53354
ltibia 92.6237
lfoot 9.26582 12.434
ltoes 3.30146
125
root 2.57808 14.6372 -4.08 -176.496 -22.5542 176.414
lowerback 8.06603 -4.99146 -6.8438
upperback 4.53282 -7.44094 0.284869
thorax 1.12471 -4.02003 4.55638
lowerneck -31.223 1.47925 -1.83644
upperneck 44.8925 -2.28832 1.41269
head 26.9798 -2.24071 -0.148281
rclavicle 1.10872e-013 1.39149e-015
rhumerus -61.3938 -1.54972 -75.9001
rradius 71.8551
rwrist 2.4919
rhand -13.5601 -7.86413
rfingers 7.12502
rthumb 12.5532 -37.467
lclavicle 1.10872e-013 1.39149e-015
lhumerus -69.1607 -34.5551 85.447
lradius 88.2964
lwrist -19.8782
lhand -18.5005 5.47959
lfingers 7.12502
lthumb 7.78725 35.3162
rfemur -50.6626 4.45126 8.07882
rtibia 68.0155
rfoot 7.12815 -0.419993
rtoes -28.5082
lfemur -8.94754 -2.0154 -8.26668
ltibia 95.6667
lfoot 8.07409 13.9544
ltoes 3.26024
